<svg width="961" height="401"
    xmlns="http://www.w3.org/2000/svg"
    xmlns:xlink="http://www.w3.org/1999/xlink" overflow="hidden">
    <defs>
        <clipPath id="clip0">
            <rect x="349" y="601" width="961" height="401" />
        </clipPath>
    </defs>
    <g clip-path="url(#clip0)" transform="translate(-349 -601)">
        <path d="M1132.76 945.923C1117.89 945.923 1106.67 948.102 1099.11 952.462 1091.55 956.821 1087.77 963.238 1087.77 971.711 1087.77 978.343 1089.99 983.593 1094.41 987.461 1098.84 991.329 1105.04 993.263 1113.03 993.263 1119.55 993.263 1125.51 991.974 1130.92 989.395 1136.33 986.816 1140.57 983.317 1143.64 978.895 1146.71 974.474 1148.25 969.562 1148.25 964.159L1148.25 945.923ZM1268.88 909.266C1257.7 909.266 1249 912.858 1242.79 920.042 1238.14 925.43 1235.23 932.527 1234.06 941.335L1233.73 946.659 1301.18 946.659 1300.82 940.086C1299.8 931.359 1297.23 924.463 1293.13 919.397 1287.66 912.643 1279.58 909.266 1268.88 909.266ZM753.187 909.266C742.001 909.266 733.304 912.858 727.097 920.042 722.441 925.43 719.531 932.527 718.367 941.335L718.037 946.659 785.486 946.659 785.125 940.086C784.1 931.359 781.536 924.463 777.433 919.397 771.963 912.643 763.881 909.266 753.187 909.266ZM1268.88 901.529C1282.16 901.529 1292.33 905.674 1299.4 913.963 1306.47 922.252 1310 934.195 1310 949.791 1310 950.651 1309.97 951.449 1309.91 952.186 1309.85 952.922 1309.82 953.598 1309.82 954.212L1233.59 954.212 1234.09 961.828C1235.3 970.52 1238.32 977.468 1243.16 982.672 1249.61 989.61 1258.86 993.079 1270.91 993.079 1277.06 993.079 1282.9 992.25 1288.43 990.593 1293.96 988.934 1298.94 986.509 1303.36 983.317L1305.94 990.685C1301.4 994 1296.11 996.548 1290.09 998.329 1284.06 1000.11 1277.67 1001 1270.91 1001 1256.04 1001 1244.57 996.702 1236.52 988.106 1228.47 979.509 1224.45 967.229 1224.45 951.265 1224.45 935.791 1228.41 923.634 1236.34 914.792 1244.27 905.95 1255.12 901.529 1268.88 901.529ZM1120.04 901.529C1128.89 901.529 1136.08 902.788 1141.61 905.305 1147.14 907.823 1151.17 911.875 1153.69 917.463 1156.21 923.05 1157.47 930.327 1157.47 939.291L1157.47 999.158 1148.8 999.158 1148.8 984.053 1148.25 984.053C1145.05 988.965 1139.95 993.018 1132.95 996.211 1125.94 999.404 1118.5 1001 1110.64 1001 1100.93 1001 1093.18 998.421 1087.4 993.263 1081.63 988.106 1078.74 981.167 1078.74 972.448 1078.74 961.396 1083.32 952.984 1092.47 947.212 1101.63 941.44 1114.75 938.554 1131.84 938.554L1148.25 938.554C1148.25 927.993 1146.1 920.502 1141.8 916.081 1137.49 911.66 1130 909.45 1119.3 909.45 1112.42 909.45 1106.15 910.248 1100.49 911.845 1094.84 913.441 1089.31 915.958 1083.9 919.397L1081.69 911.845C1087.34 908.283 1093.33 905.674 1099.67 904.016 1106 902.358 1112.79 901.529 1120.04 901.529ZM1068 901.529 1068 909.818C1059.64 909.818 1052.05 911.568 1045.23 915.068 1038.4 918.568 1033 923.296 1029 929.252 1025.01 935.208 1023.01 941.932 1023.01 949.422L1023.01 999.158 1013.97 999.158 1013.97 903.371 1022.82 903.371 1022.82 925.107 1023.19 925.107C1025.77 920.318 1029.28 916.173 1033.7 912.673 1038.13 909.174 1043.29 906.441 1049.19 904.476 1055.09 902.511 1061.36 901.529 1068 901.529ZM862.687 901.529C874.365 901.529 883.061 905.06 888.777 912.121 894.493 919.182 897.351 929.774 897.351 943.896L897.351 999.158 888.132 999.158 888.132 945.186C888.132 933.151 885.889 924.186 881.402 918.292 876.915 912.397 870.062 909.45 860.843 909.45 854.206 909.45 848.336 910.893 843.235 913.779 838.134 916.665 834.169 920.625 831.342 925.66 828.515 930.695 827.101 936.589 827.101 943.344L827.101 999.158 818.066 999.158 818.066 903.371 827.101 903.371 827.101 918.844 827.47 918.844C830.666 913.441 835.368 909.204 841.575 906.134 847.783 903.064 854.82 901.529 862.687 901.529ZM753.187 901.529C766.462 901.529 776.634 905.674 783.702 913.963 790.77 922.252 794.304 934.195 794.304 949.791 794.304 950.651 794.273 951.449 794.212 952.186 794.151 952.922 794.12 953.598 794.12 954.212L717.894 954.212 718.39 961.828C719.6 970.52 722.625 977.468 727.465 982.672 733.919 989.61 743.169 993.079 755.215 993.079 761.361 993.079 767.2 992.25 772.731 990.593 778.263 988.934 783.241 986.509 787.666 983.317L790.248 990.685C785.7 994 780.414 996.548 774.391 998.329 768.368 1000.11 761.976 1001 755.215 1001 740.341 1001 728.879 996.702 720.828 988.106 712.776 979.509 708.751 967.229 708.751 951.265 708.751 935.791 712.715 923.634 720.643 914.792 728.572 905.95 739.419 901.529 753.187 901.529ZM941.557 872.056 950.592 872.056 950.592 903.371 988.206 903.371 988.39 911.292 950.592 911.292 950.592 970.053C950.592 978.281 952.282 984.115 955.662 987.553 959.043 990.992 964.728 992.711 972.718 992.711 975.422 992.711 977.881 992.527 980.093 992.158 982.306 991.79 984.58 991.114 986.915 990.132L988.759 997.684C985.932 998.912 983.166 999.772 980.462 1000.26 977.758 1000.75 974.746 1001 971.427 1001 960.856 1001 953.235 998.667 948.564 994 943.893 989.334 941.557 981.658 941.557 970.974L941.557 911.292 916.85 911.292 917.034 903.371 941.557 903.371ZM673.681 799.574C658.292 803.767 643.181 810.226 628.348 818.951L621.761 823.187 618.366 826.044C615.821 827.961 613.34 829.599 610.925 830.957L609.221 831.752 599.617 839.022C586.285 849.967 574.929 861.975 565.547 875.047 588.48 875.047 613.854 870.854 641.669 862.468 655.577 858.275 668.037 853.637 679.051 848.554L695.485 839.056 687.49 837.646C681.529 836.234 676.212 834.3 671.541 831.844L673.754 824.291C678.425 826.624 683.495 828.466 688.965 829.818 694.436 831.168 699.998 831.844 705.652 831.844L707.478 831.651 692.897 814.743C687.219 809.344 680.813 804.288 673.681 799.574ZM697.382 796.615C691.896 796.615 685.367 797.382 677.796 798.917 690.853 807.905 701.661 818.374 710.22 830.323 719.217 822.649 723.716 815.908 723.716 810.098 723.716 801.109 714.938 796.615 697.382 796.615ZM653.122 788.67 651.323 791C648.956 793.984 646.194 797.397 643.038 801.239L639.846 804.923 648.443 801.987C655.091 799.995 661.968 798.204 669.073 796.615ZM974.183 784.687C959.309 784.687 948.093 786.867 940.533 791.227 932.973 795.586 929.193 802.002 929.193 810.476 929.193 817.107 931.406 822.357 935.831 826.226 940.256 830.094 946.464 832.028 954.454 832.028 960.969 832.028 966.93 830.739 972.339 828.16 977.747 825.581 981.988 822.081 985.061 817.66 988.134 813.239 989.671 808.327 989.671 802.923L989.671 784.687ZM1172.97 784.687C1158.1 784.687 1146.88 786.867 1139.32 791.226 1131.76 795.586 1127.98 802.002 1127.98 810.476 1127.98 817.107 1130.19 822.357 1134.62 826.225 1139.04 830.094 1145.25 832.028 1153.24 832.028 1159.76 832.028 1165.72 830.738 1171.13 828.159 1176.54 825.581 1180.78 822.081 1183.85 817.66 1186.92 813.239 1188.46 808.327 1188.46 802.923L1188.46 784.687ZM630.245 779.329 620.973 791.081C600.879 814.109 577.871 828.638 551.949 834.667 560.624 835.982 568.146 836.64 574.515 836.64L578.711 836.29 579.604 835.551C594.078 824.745 610.603 815.75 629.181 808.567L635.644 806.359 643.652 797.865 651.063 787.644 643.654 783.954ZM516.324 776.531 515.199 776.924C510.484 778.979 505.953 781.377 501.605 784.118 492.91 789.599 486.388 795.546 482.04 801.958L477.423 811.367 479.784 809.748C483.246 807.219 486.745 804.508 490.28 801.617 496.749 796.465 503.93 789.668 511.826 781.228ZM562.585 767.675C556.769 767.675 551.137 768.018 545.689 768.703L540.343 769.746 536.107 773.952C525.711 784.009 516.837 792.025 509.485 798 500.899 804.96 492.437 811.051 484.098 816.272L475.746 821.1 475.518 822.594C475.518 848.794 497.792 865.73 542.34 873.403 549.253 863.784 557.078 854.97 565.815 846.961L575.322 839.094 562.181 838.243C557.295 837.668 551.97 836.805 546.206 835.654 539.181 837.956 531.111 839.107 521.999 839.107 515.631 839.107 512.448 837.956 512.448 835.654 512.448 833.023 516.727 831.707 525.286 831.707 531.32 831.707 538.288 832.256 546.188 833.352 563.196 829.296 576.061 822.609 584.784 813.291 590.236 807.468 598.849 795.435 610.623 777.194L612.685 773.956 590.41 769.484C581.269 768.278 571.994 767.675 562.585 767.675ZM1064.21 748.03C1053.02 748.03 1044.32 751.622 1038.12 758.806 1033.46 764.194 1030.55 771.292 1029.39 780.099L1029.06 785.424 1096.51 785.424 1096.15 778.85C1095.12 770.123 1092.56 763.227 1088.45 758.161 1082.98 751.407 1074.9 748.03 1064.21 748.03ZM1064.21 740.294C1077.48 740.294 1087.66 744.438 1094.72 752.727 1101.79 761.017 1105.33 772.959 1105.33 788.555 1105.33 789.415 1105.29 790.213 1105.23 790.95 1105.17 791.687 1105.14 792.362 1105.14 792.976L1028.91 792.976 1029.41 800.592C1030.62 809.284 1033.65 816.232 1038.49 821.436 1044.94 828.375 1054.19 831.844 1066.24 831.844 1072.38 831.844 1078.22 831.015 1083.75 829.357 1089.28 827.699 1094.26 825.274 1098.69 822.081L1101.27 829.449C1096.72 832.765 1091.44 835.313 1085.41 837.094 1079.39 838.874 1073 839.765 1066.24 839.765 1051.36 839.765 1039.9 835.466 1031.85 826.87 1023.8 818.274 1019.77 805.994 1019.77 790.029 1019.77 774.556 1023.74 762.398 1031.66 753.556 1039.59 744.715 1050.44 740.294 1064.21 740.294ZM961.46 740.294C970.311 740.294 977.502 741.552 983.033 744.07 988.565 746.587 992.59 750.64 995.11 756.227 997.63 761.815 998.89 769.091 998.89 778.056L998.89 837.922 990.224 837.922 990.224 822.818 989.671 822.818C986.475 827.73 981.374 831.782 974.367 834.975 967.361 838.168 959.924 839.765 952.057 839.765 942.346 839.765 934.602 837.186 928.825 832.028 923.047 826.87 920.158 819.932 920.158 811.213 920.158 800.16 924.737 791.748 933.895 785.977 943.053 780.205 956.175 777.319 973.261 777.319L989.671 777.319C989.671 766.758 987.52 759.267 983.218 754.846 978.915 750.425 971.417 748.214 960.723 748.214 953.839 748.214 947.57 749.013 941.916 750.609 936.261 752.205 930.73 754.723 925.321 758.161L923.109 750.609C928.763 747.048 934.755 744.438 941.086 742.78 947.417 741.122 954.208 740.294 961.46 740.294ZM909.418 740.294 909.418 748.583C901.06 748.583 893.469 750.333 886.647 753.833 879.825 757.332 874.416 762.061 870.421 768.016 866.426 773.972 864.429 780.696 864.429 788.187L864.429 837.922 855.394 837.922 855.394 742.136 864.244 742.136 864.244 763.872 864.613 763.872C867.195 759.082 870.698 754.938 875.123 751.438 879.548 747.938 884.711 745.206 890.611 743.241 896.511 741.276 902.781 740.294 909.418 740.294ZM1160.25 740.293C1169.1 740.293 1176.29 741.552 1181.82 744.07 1187.35 746.587 1191.38 750.639 1193.9 756.227 1196.42 761.815 1197.68 769.091 1197.68 778.056L1197.68 999.158 1189.01 999.158 1189.01 822.818 1188.46 822.818C1185.26 827.73 1180.16 831.782 1173.16 834.975 1166.15 838.168 1158.71 839.764 1150.84 839.764 1141.13 839.764 1133.39 837.186 1127.61 832.028 1121.83 826.87 1118.95 819.932 1118.95 811.212 1118.95 800.16 1123.53 791.748 1132.68 785.976 1141.84 780.205 1154.96 777.319 1172.05 777.319L1188.46 777.319C1188.46 766.758 1186.31 759.267 1182.01 754.846 1177.7 750.425 1170.2 748.214 1159.51 748.214 1152.63 748.214 1146.36 749.013 1140.7 750.609 1135.05 752.205 1129.52 754.723 1124.11 758.161L1121.9 750.609C1127.55 747.048 1133.54 744.438 1139.87 742.78 1146.2 741.122 1153 740.293 1160.25 740.293ZM571.864 737.654C565.143 744.724 558.803 751.284 552.844 757.334L550.182 759.977 562.256 759.289C576.04 759.289 589.878 761.008 603.77 764.446L616.419 768.092 618.067 765.504C623.282 757.214 629.003 747.931 635.23 737.654ZM782.978 710.821 792.012 710.821 792.012 742.136 829.627 742.136 829.811 750.056 792.012 750.056 792.012 808.818C792.012 817.046 793.703 822.879 797.083 826.318 800.463 829.756 806.148 831.475 814.138 831.475 816.843 831.475 819.301 831.291 821.514 830.923 823.727 830.554 826 829.879 828.336 828.896L830.18 836.449C827.352 837.677 824.587 838.536 821.883 839.028 819.178 839.519 816.167 839.765 812.848 839.765 802.277 839.765 794.655 837.432 789.984 832.765 785.313 828.098 782.978 820.423 782.978 809.739L782.978 750.056 758.271 750.056 758.455 742.136 782.978 742.136ZM738.755 634.721C710.117 636.146 683.564 644.368 659.095 659.386 634.627 674.403 606.427 699.616 574.497 735.023L636.876 735.023C650.921 710.578 667.873 688.654 687.733 669.251 707.264 649.958 724.272 638.448 738.755 634.721ZM768.052 629.295C783.304 629.295 790.93 631.761 790.93 636.695 790.93 638.668 789.778 639.654 787.474 639.654 786.486 639.654 782.81 638.996 776.446 637.681 764.706 635.269 754.94 634.064 747.149 634.064 729.484 639.435 713.875 649.849 700.324 665.305 686.773 680.761 671.33 705.81 653.993 740.449 650.674 747.095 647.238 753.401 643.686 759.366L633.766 774.577 645.609 779.915 653.592 784.157 658.517 777.366C659.506 775.83 660.275 775.062 660.823 775.062 661.482 775.062 661.866 775.281 661.975 775.719 661.975 776.542 660.397 779.081 657.241 783.334L655.729 785.292 659.627 787.363C664.306 790.037 668.99 792.901 673.681 795.957 680.155 794.641 686.793 793.984 693.596 793.984 715.432 793.984 726.349 799.355 726.349 810.098 726.349 813.661 725.115 817.292 722.646 820.991L712.715 831.097 717.407 830.6C720.818 829.771 723.722 828.528 726.119 826.87 730.913 823.554 733.31 818.888 733.31 812.871 733.31 808.327 732.111 804.827 729.714 802.371 727.317 799.915 723.998 797.919 719.757 796.384 715.517 794.849 710.692 793.467 705.284 792.239 698.891 790.766 693.114 789.016 687.951 786.99 682.789 784.963 678.702 782.262 675.69 778.885 672.678 775.507 671.173 771.056 671.173 765.53 671.173 757.547 674.276 751.346 680.484 746.925 686.692 742.504 695.327 740.294 706.39 740.294 712.29 740.294 718.221 740.938 724.183 742.228 730.144 743.517 735.276 745.329 739.579 747.662L737.182 755.214C733.371 753.004 728.7 751.284 723.169 750.056 717.637 748.828 712.106 748.214 706.574 748.214 698.215 748.214 691.762 749.719 687.214 752.727 682.666 755.736 680.392 760.003 680.392 765.53 680.392 769.459 681.56 772.591 683.895 774.924 686.231 777.258 689.396 779.1 693.391 780.45 697.386 781.801 701.965 783.091 707.127 784.319 712.044 785.424 716.654 786.713 720.956 788.187 725.258 789.661 729.007 791.472 732.203 793.621 735.399 795.77 737.919 798.41 739.763 801.542 741.607 804.673 742.529 808.45 742.529 812.871 742.529 821.344 739.271 827.945 732.756 832.673 729.499 835.037 725.612 836.81 721.094 837.992L714.927 838.7 721.658 851.411C723.908 857.522 725.033 863.373 725.033 868.963 725.033 871.704 724.209 873.074 722.564 873.074 721.247 873.074 720.589 871.265 720.589 867.648 720.589 862.167 719.629 856.645 717.708 851.082L711.544 839.088 705.652 839.765 700.245 839.452 680.903 850.815C670.081 855.926 657.826 860.632 644.138 864.935 616.761 873.54 592.485 877.843 571.308 877.843 568.345 877.843 565.767 877.733 563.572 877.514 546.016 901.959 537.238 925.527 537.238 948.218 537.238 963.674 542.039 975.897 551.64 984.886 561.241 993.875 574.325 998.369 590.894 998.369 622.165 998.369 650.036 983.406 674.504 953.48 689.317 935.393 696.724 918.237 696.724 902.014 696.724 893.463 694.149 886.667 689.001 881.625 683.852 876.582 677.006 874.061 668.463 874.061 654.772 874.061 640.066 881.268 624.348 895.683 608.629 910.098 600.769 923.554 600.769 936.051 600.769 937.147 601.096 937.695 601.749 937.695 602.292 937.585 602.727 937.366 603.053 937.037 605.989 934.406 608.709 933.091 611.21 933.091 616.758 933.091 619.532 936.105 619.532 942.134 619.532 950.246 615.582 954.302 607.682 954.302 600.44 954.302 596.819 949.917 596.819 941.148 596.819 925.472 604.774 909.934 620.684 894.532 636.594 879.131 652.724 871.43 669.073 871.43 690.14 871.43 700.674 882.995 700.674 906.124 700.674 930.021 689.235 951.808 666.357 971.485 643.479 991.162 618.106 1001 590.236 1001 570.814 1001 554.493 994.478 541.271 981.433 528.049 968.388 521.438 952.274 521.438 933.091 521.438 914.455 527.967 895.327 541.024 875.705 499.452 868.032 476.068 852.721 470.871 829.773L470.261 824.132 459.451 829.323C443.266 836.284 427.576 839.765 412.379 839.765 395.042 839.765 380.312 835.708 368.187 827.597 356.062 819.485 350 809.619 350 798 350 791.971 351.838 786.818 355.514 782.543 359.19 778.268 363.661 776.131 368.928 776.131 376.06 776.131 379.626 779.583 379.626 786.489 379.626 790.107 378.399 793.204 375.946 795.78 373.492 798.356 370.631 799.644 367.362 799.644 362.237 799.644 359.675 797.177 359.675 792.245L360.001 788.956C360.219 788.518 360.328 787.914 360.328 787.147 360.328 786.051 359.838 785.503 358.857 785.503 357.767 785.503 356.676 786.873 355.586 789.614 354.496 792.354 353.95 795.149 353.95 798 353.95 808.742 359.596 817.813 370.889 825.212 382.181 832.612 396.049 836.312 412.495 836.312 430.174 836.312 449.178 829.806 469.508 816.796L470.18 816.335 471.414 807.169C474.726 795.392 483.007 785.187 496.256 776.554 505.089 770.799 515.005 766.483 526.005 763.606L529.376 762.975 532.957 759.276C539.206 752.864 544.661 747.355 549.321 742.751L554.253 737.654 522.323 737.654 524.298 734.694C534.832 734.694 545.64 734.804 556.722 735.023 588.871 699.287 620.06 673.17 650.29 656.673 680.519 640.175 712.476 631.816 746.162 631.597 753.952 630.063 761.249 629.295 768.052 629.295ZM540.428 602C551.949 602 560.974 604.85 567.502 610.55 574.031 616.251 577.295 624.088 577.295 634.064 577.295 641.518 574.662 650.342 569.395 660.537 564.677 669.855 562.318 676.158 562.318 679.446 562.318 687.558 567.153 691.614 576.825 691.614 587.814 691.614 599.189 683.475 610.948 667.199 611.937 665.882 612.762 665.223 613.422 665.223 614.3 665.223 614.739 665.661 614.739 666.539 614.739 667.748 612.706 670.661 608.641 675.279 597.434 688.142 586.831 694.574 576.832 694.574 570.46 694.574 565.268 692.354 561.257 687.914 557.246 683.475 555.241 677.637 555.241 670.402 555.241 664.264 558.861 654.343 566.103 640.641 569.505 634.283 571.206 629.021 571.206 624.856 571.206 619.375 568.161 614.688 562.071 610.797 555.981 606.906 548.547 604.96 539.77 604.96 514.643 604.96 491.353 614.606 469.902 633.899 448.451 653.192 437.725 674.075 437.725 696.547 437.725 707.947 441.322 717.265 448.515 724.5 455.708 731.734 465.014 735.352 476.434 735.352 488.844 735.352 501.334 730.83 513.907 721.786 526.48 712.743 535.348 701.863 540.51 689.147 540.839 688.051 541.278 687.503 541.827 687.503 542.814 687.503 543.308 688.051 543.308 689.147 543.308 691.449 541.387 695.533 537.544 701.397 533.701 707.262 529.748 712.167 525.684 716.114 510.861 730.693 494.225 737.983 475.776 737.983 463.259 737.983 453.212 734.146 445.634 726.473 438.057 718.8 434.269 708.605 434.269 695.889 434.269 672.759 445.433 651.329 467.763 631.597 490.091 611.866 514.313 602 540.428 602Z" fill="#464042" fill-rule="evenodd" />
    </g>
</svg>